<svg width="16" height="18" viewBox="0 0 16 18" fill="none" xmlns="http://www.w3.org/2000/svg">
<path d="M13.3333 6.70433V4.83333C13.3333 2.16833 10.9406 0 7.99996 0C5.05929 0 2.66663 2.16833 2.66663 4.83333V6.70433C1.53296 6.89967 0.666626 7.88767 0.666626 9.07667V15.5907C0.666626 16.919 1.74763 18 3.07629 18H12.9236C14.2523 18 15.3333 16.919 15.3333 15.5903V9.07633C15.3333 7.88767 14.467 6.89967 13.3333 6.70433ZM3.33329 4.83333C3.33329 2.53567 5.42663 0.666667 7.99996 0.666667C10.5733 0.666667 12.6666 2.53567 12.6666 4.83333V6.66667H3.33329V4.83333ZM14.6666 15.5903C14.6666 16.5513 13.8846 17.3333 12.9236 17.3333H3.07629C2.11529 17.3333 1.33329 16.5513 1.33329 15.5903V9.07633C1.33329 8.11533 2.11529 7.33333 3.07629 7.33333H12.9236C13.8846 7.33333 14.6666 8.11533 14.6666 9.07633V15.5903Z" fill="white"/>
<path d="M7.99996 9.33337C7.26463 9.33337 6.66663 9.93137 6.66663 10.6667V12.6667C6.66663 13.402 7.26463 14 7.99996 14C8.73529 14 9.33329 13.402 9.33329 12.6667V10.6667C9.33329 9.93137 8.73529 9.33337 7.99996 9.33337ZM8.66663 12.6667C8.66663 13.0344 8.36763 13.3334 7.99996 13.3334C7.63229 13.3334 7.33329 13.0344 7.33329 12.6667V10.6667C7.33329 10.299 7.63229 10 7.99996 10C8.36763 10 8.66663 10.299 8.66663 10.6667V12.6667Z" fill="white"/>
</svg>
