<svg width="30" height="30" viewBox="0 0 30 30" fill="none" xmlns="http://www.w3.org/2000/svg">
<path d="M14.1345 22.2005C13.9089 22.0349 13.5913 22.0833 13.4255 22.309L13.3629 22.3943C13.1972 22.6199 13.2455 22.9369 13.4708 23.1029C13.5613 23.1697 13.6668 23.2019 13.7713 23.2019C13.9267 23.2019 14.0802 23.1307 14.1796 22.996L14.2431 22.9096C14.4089 22.6838 14.3603 22.3664 14.1345 22.2005Z" fill="white"/>
<path d="M14.2667 27.0259L12.9622 24.6539L14.1802 22.9951C14.346 22.7694 14.2973 22.4519 14.0715 22.2861C13.8458 22.1202 13.5283 22.1689 13.3625 22.3948L11.9529 24.3146C11.836 24.4737 11.8222 24.6862 11.9173 24.8592L13.3779 27.5148V27.5147C13.4703 27.6826 13.6438 27.7776 13.8228 27.7776C13.9055 27.7775 13.9893 27.7573 14.0668 27.7147C14.3122 27.5797 14.4017 27.2714 14.2667 27.0259Z" fill="white"/>
<path d="M18.0471 24.3146L16.6432 22.4026C16.5268 22.2441 16.3295 22.167 16.1365 22.2052C15.9436 22.2431 15.79 22.3893 15.7423 22.58C15.7057 22.7265 15.7362 22.8815 15.8256 23.0032L17.0375 24.6539L15.742 27.0098C15.7008 27.0846 15.6792 27.169 15.6792 27.2545C15.6792 27.486 15.836 27.6882 16.0602 27.7458C16.1022 27.7566 16.1446 27.7618 16.1864 27.7618C16.368 27.7618 16.5401 27.6638 16.6309 27.499L18.0827 24.8594C18.1779 24.6862 18.164 24.4737 18.0471 24.3146Z" fill="white"/>
<path d="M18.851 16.3437C18.6842 16.2561 18.4825 16.2681 18.3273 16.3751C18.0256 16.5829 17.7457 16.8031 17.4952 17.0294C16.1302 18.2634 14.8334 18.0964 14.7826 18.0892C14.752 18.0844 14.7209 18.0822 14.6901 18.0831C14.1506 18.097 13.178 17.604 12.149 16.7959C11.9916 16.6723 11.8303 16.5545 11.6691 16.4458C11.5137 16.3408 11.3129 16.3302 11.1474 16.4183C10.9817 16.5063 10.8782 16.6785 10.8782 16.8661V18.6062C10.8782 18.76 10.9482 18.9055 11.0682 19.0018C11.0824 19.0132 11.0971 19.0238 11.1124 19.0335L14.7089 21.4368C14.7095 21.4371 14.71 21.4376 14.7106 21.438L14.7201 21.4443C14.8048 21.5004 14.9023 21.5287 15.0003 21.5287C15.0826 21.5287 15.165 21.5087 15.2403 21.4684C15.2562 21.4599 15.2714 21.4506 15.2861 21.4406C15.2878 21.4395 15.2895 21.4384 15.2912 21.4372C15.2932 21.436 15.2952 21.4346 15.2972 21.4333L18.8853 19.0357C18.8997 19.0265 18.9137 19.0167 18.9273 19.0061C19.0504 18.91 19.1223 18.7625 19.1223 18.6063V16.7928C19.1223 16.6042 19.0179 16.4314 18.851 16.3437ZM18.1078 18.3349L15.0002 20.4114L11.8926 18.3348V17.8735C12.6493 18.4234 13.7624 19.0979 14.6697 19.0978C14.6716 19.0978 14.6737 19.0978 14.6756 19.0978C14.9803 19.1315 16.5338 19.2231 18.108 17.8421V18.3349H18.1078Z" fill="white"/>
<path d="M15.5003 20.9381C15.4669 20.7369 15.3161 20.5754 15.1177 20.528C14.9192 20.481 14.7119 20.5569 14.5912 20.7213L13.4253 22.3092C13.2595 22.5351 13.3081 22.8525 13.534 23.0183C13.6244 23.0847 13.7296 23.1167 13.8338 23.1167C13.9898 23.1167 14.1436 23.0449 14.2431 22.9095L15.4029 21.33C15.4689 21.2437 15.5073 21.1364 15.5073 21.0216C15.5072 20.9937 15.5049 20.9656 15.5003 20.9381Z" fill="white"/>
<path d="M22.7274 4.5863C22.7173 4.50684 22.4797 2.79203 20.8656 2.11557C20.9124 1.8144 20.9075 1.42732 20.7163 1.05074C20.4593 0.544608 19.9522 0.214783 19.209 0.0702905C19.1771 0.0640796 19.1447 0.0609741 19.1122 0.0609741H12.3044C9.54002 0.0609741 7.29102 2.30992 7.29102 5.07438V7.74574C7.29102 8.44171 7.52826 9.12041 7.95893 9.65666C8.17244 9.92256 8.43541 10.3869 8.47508 11.089C8.49055 11.3631 8.72 11.5749 8.9958 11.5673C9.27026 11.5596 9.4887 11.3348 9.4887 11.0603V7.57745C9.83311 6.1531 11.0086 5.87589 11.2107 5.83845H13.4127C13.6718 5.83845 13.9265 5.7989 14.1699 5.72085C14.5886 5.58655 15.2529 5.3394 15.7366 5.15571C16.0601 5.03272 16.4184 5.02821 16.7451 5.14305L19.1026 5.97063C20.2812 6.4054 20.4915 7.44005 20.5176 7.60259V11.7825C20.5176 12.048 20.7223 12.2682 20.987 12.288C20.9999 12.2889 21.0125 12.2895 21.0252 12.2895C21.274 12.2894 21.4888 12.1071 21.5265 11.8573C21.5284 11.8443 21.7309 10.536 22.384 9.48861C22.6113 9.12398 22.7314 8.70826 22.7314 8.28638V4.65034C22.7314 4.62895 22.7301 4.60757 22.7274 4.5863ZM21.7169 8.28615C21.7169 8.51273 21.653 8.7375 21.532 8.93736V7.5679C21.532 7.54956 21.531 7.53134 21.529 7.51312C21.521 7.43947 21.3114 5.70122 19.449 5.01708C19.4467 5.01626 19.4444 5.01544 19.4422 5.01462L17.0811 4.18575C16.8149 4.09229 16.5364 4.04565 16.2581 4.04565C15.9588 4.04565 15.6597 4.09961 15.3763 4.20743C14.6992 4.46465 14.1748 4.65397 13.8601 4.75487C13.7169 4.80075 13.5664 4.82407 13.4127 4.82407H11.1696C11.1479 4.82407 11.1261 4.82548 11.1045 4.82823C11.0186 4.83936 8.99557 5.12706 8.48645 7.409C8.47836 7.44527 8.47426 7.4823 8.47426 7.51945V8.56335C8.36381 8.30812 8.30533 8.02933 8.30533 7.74579V5.0745C8.30533 2.86949 10.0993 1.07553 12.3042 1.07553H19.061C19.3407 1.13512 19.6807 1.2574 19.8097 1.50619C19.9676 1.8107 19.7877 2.23 19.7875 2.23035C19.7226 2.36834 19.7234 2.52813 19.7893 2.66553C19.8553 2.80293 19.9796 2.90336 20.1279 2.93905C21.4192 3.24989 21.6825 4.48838 21.7169 4.68872V8.28615H21.7169Z" fill="white"/>
<path d="M21.5292 7.51309C21.5212 7.43944 21.3116 5.70119 19.4492 5.01705C19.4469 5.01623 19.4446 5.01541 19.4423 5.01459L17.0813 4.18572C16.5287 3.99177 15.9234 3.99951 15.3764 4.20728C14.6993 4.46451 14.1749 4.65382 13.8602 4.75478C13.7171 4.80066 13.5665 4.82392 13.4128 4.82392H11.1697C11.148 4.82392 11.1262 4.82533 11.1046 4.82808C11.0187 4.83922 8.99568 5.12691 8.48655 7.40885C8.47847 7.44512 8.47437 7.48215 8.47437 7.5193V11.8796C8.47437 11.8834 8.47442 11.8871 8.47448 11.8909C8.47782 12.0423 8.58499 15.6193 11.0565 17.2552L11.0693 17.2642C11.0799 17.2717 11.0905 17.2792 11.1015 17.2867C11.2425 17.3818 11.384 17.4851 11.5224 17.5938C12.2424 18.1591 13.5992 19.0979 14.6696 19.0979C14.6716 19.0979 14.6735 19.0979 14.6755 19.0979C14.7337 19.1042 14.8374 19.1128 14.9782 19.1128C15.5848 19.1128 16.879 18.9538 18.1754 17.782C18.3929 17.5854 18.6375 17.3931 18.9027 17.2104L18.9406 17.1838C18.953 17.1751 18.9654 17.1663 18.9781 17.1578C19.8026 16.604 21.2304 15.1753 21.5301 11.8276C21.5315 11.8126 21.5322 11.7974 21.5322 11.7823V7.56787C21.5321 7.54959 21.5311 7.53137 21.5292 7.51309ZM20.5176 11.7594C20.2413 14.7806 18.954 15.9518 18.4125 16.3155C18.3933 16.3285 18.3743 16.3418 18.3553 16.3552L18.3272 16.375C18.0255 16.5828 17.7455 16.803 17.4951 17.0294C16.1352 18.2588 14.8425 18.0975 14.7791 18.0886C14.7497 18.0842 14.7198 18.0824 14.69 18.0832C14.1505 18.097 13.1778 17.6041 12.1488 16.7959C11.9915 16.6723 11.8301 16.5545 11.6692 16.446L11.6567 16.4372C11.6445 16.4285 11.6324 16.4199 11.6181 16.4104C9.62369 15.0903 9.4932 12.0012 9.4888 11.8723V7.57737C9.83445 6.14779 11.0172 5.87375 11.2099 5.83836H13.4128C13.6719 5.83836 13.9266 5.79881 14.17 5.72076C14.5888 5.58646 15.2531 5.33931 15.7367 5.15562C16.0602 5.03263 16.4185 5.02812 16.7452 5.14297L19.1027 5.97055C20.2813 6.40531 20.4916 7.43996 20.5177 7.6025V11.7594H20.5176Z" fill="white"/>
<path d="M15.4535 20.7949C15.3745 20.6368 15.2189 20.5313 15.0428 20.5163C14.867 20.5017 14.6956 20.579 14.591 20.7215L13.376 22.3763C13.2103 22.602 13.2587 22.9193 13.4843 23.0851C13.5747 23.1517 13.68 23.1839 13.7844 23.1839C13.94 23.1839 14.0936 23.1124 14.1931 22.9775L15.4081 21.3288C15.4724 21.2416 15.5071 21.1302 15.5071 21.0219C15.5072 20.9432 15.4887 20.8654 15.4535 20.7949Z" fill="white"/>
<path d="M15.486 28.9616C15.2955 28.7623 14.9807 28.7517 14.7772 28.9379L14.6613 29.0439C14.4877 29.2027 14.446 29.46 14.5607 29.6655L14.5643 29.6718C14.6418 29.8107 14.7799 29.9051 14.9374 29.927C14.9607 29.9302 14.984 29.9318 15.0072 29.9318C15.1407 29.9318 15.27 29.879 15.3658 29.7832L15.4782 29.6707C15.6731 29.4758 15.6766 29.1608 15.486 28.9616Z" fill="white"/>
<path d="M15.3388 29.0439L15.2228 28.9378C15.0194 28.7518 14.7045 28.7624 14.514 28.9616C14.3234 29.1609 14.3269 29.476 14.5219 29.6708L14.6344 29.7833C14.7302 29.8791 14.8594 29.9318 14.993 29.9318C15.0168 29.9318 15.0408 29.9302 15.0648 29.9267C15.2227 29.9042 15.3609 29.8085 15.4377 29.6686L15.4413 29.6622C15.5537 29.4571 15.5114 29.2017 15.3388 29.0439Z" fill="white"/>
<path d="M15.3473 29.0517L15.3466 29.0511C15.2683 28.9779 15.167 28.9296 15.0554 28.9174C14.9059 28.9011 14.7603 28.9517 14.6544 29.0503L14.6529 29.0517C14.5504 29.1452 14.4907 29.2768 14.4877 29.4155C14.4847 29.5544 14.5387 29.6883 14.6371 29.7861L14.6424 29.7915C14.7414 29.8899 14.8707 29.939 15.0001 29.939C15.1299 29.939 15.2597 29.8894 15.3587 29.7905L15.364 29.7852C15.462 29.6872 15.5156 29.5534 15.5124 29.4149C15.5094 29.2763 15.4496 29.1451 15.3473 29.0517Z" fill="white"/>
<path d="M15.1646 20.5306C14.9545 20.4634 14.724 20.5414 14.5961 20.7213C14.453 20.9227 14.4766 21.1972 14.6509 21.3723C14.749 21.4709 14.8792 21.5214 15.0104 21.5214C15.1123 21.5214 15.2147 21.4909 15.3031 21.4287C15.4381 21.3337 15.5184 21.179 15.5184 21.0139V21.0127C15.5184 20.792 15.3749 20.5977 15.1646 20.5306Z" fill="white"/>
<path d="M15.4121 20.7171L15.4077 20.7112C15.2776 20.5351 15.0491 20.4626 14.8411 20.5311C14.6332 20.5996 14.4927 20.7939 14.4927 21.0128V21.0214C14.4927 21.2082 14.5975 21.3784 14.762 21.4668C14.8366 21.5068 14.9188 21.5265 15.001 21.5265C15.1001 21.5265 15.199 21.4978 15.2841 21.4414C15.4001 21.3647 15.4795 21.2436 15.5037 21.1067C15.5279 20.9698 15.4948 20.8289 15.4121 20.7171Z" fill="white"/>
<path d="M21.034 19.1237C20.9815 18.9848 20.8707 18.8759 20.7309 18.8259L18.7861 18.1287C18.7703 18.1231 18.754 18.118 18.7377 18.1141C18.5989 18.0793 18.4518 18.1048 18.3329 18.1844L14.7295 20.5922C14.7285 20.5929 14.7275 20.5935 14.7265 20.5942L15.0094 21.0149L14.7201 20.5985C14.6144 20.6684 14.5387 20.7756 14.508 20.8985C14.4912 20.966 14.4884 21.0365 14.4998 21.1051C14.5129 21.1835 14.5442 21.2578 14.5913 21.322L17.2295 24.915C17.3253 25.0457 17.4774 25.1221 17.6382 25.1221C17.6492 25.1221 17.6603 25.1217 17.6714 25.1209C17.8442 25.1095 17.9993 25.011 18.0827 24.8592L21.004 19.5477C21.0757 19.4175 21.0867 19.2625 21.034 19.1237ZM17.5768 23.674L15.7226 21.1486L18.6841 19.1697L19.8286 19.5801L17.5768 23.674Z" fill="white"/>
<path d="M15.4998 20.9341C15.476 20.798 15.3976 20.6774 15.2828 20.6004L11.6674 18.1845C11.5523 18.1075 11.4104 18.0811 11.2753 18.1111C11.2545 18.1157 11.2341 18.1217 11.2141 18.1288L9.26936 18.826C9.12956 18.8761 9.01876 18.985 8.9662 19.1238C8.91364 19.2628 8.92454 19.4177 8.99614 19.5479L11.9174 24.8593C12.0009 25.0111 12.156 25.1097 12.3288 25.121C12.3398 25.1217 12.3509 25.1221 12.3619 25.1221C12.5227 25.1221 12.6747 25.0457 12.7707 24.915L14.1804 22.9951C14.1815 22.9937 14.1826 22.9921 14.1837 22.9905L15.409 21.3217C15.4908 21.2102 15.5236 21.0703 15.4998 20.9341ZM13.3628 22.3945C13.3615 22.3962 13.3604 22.3978 13.3591 22.3995L12.4232 23.6742L10.1715 19.5802L11.316 19.1699L14.2774 21.1488L13.3628 22.3945Z" fill="white"/>
<path d="M29.9749 27.7826L29.3206 23.8314C29.1144 22.5863 28.2491 21.5459 27.0622 21.1167L20.7321 18.8265C20.5369 18.7559 20.3187 18.8112 20.1808 18.966C20.0429 19.1209 20.013 19.3441 20.1056 19.5298L21.4273 22.1803L20.1304 22.2002C19.9543 22.203 19.7922 22.2968 19.7023 22.4482C19.6123 22.5996 19.6072 22.7867 19.6889 22.9427L20.2208 23.9584L14.7773 28.9381C14.7717 28.9432 14.7663 28.9483 14.7609 28.9537L14.6485 29.066C14.4893 29.2253 14.4541 29.4705 14.5622 29.668L14.5662 29.6752C14.6552 29.8378 14.8259 29.939 15.0112 29.939H28.1463C28.692 29.939 29.2072 29.7004 29.56 29.2842C29.9129 28.8681 30.0641 28.3207 29.9749 27.7826ZM28.7865 28.6282C28.6266 28.8166 28.3933 28.9247 28.1463 28.9247H16.2948L21.1939 24.4432C21.3638 24.2878 21.4078 24.0376 21.3009 23.8336L20.9699 23.2018L22.2488 23.1821C22.4231 23.1795 22.5837 23.0874 22.6744 22.9385C22.7649 22.7895 22.7727 22.6046 22.6949 22.4486L21.5795 20.2117L26.7174 22.0705C27.5596 22.3751 28.1738 23.1134 28.3201 23.9971L28.9744 27.9482C28.9744 27.9483 28.9744 27.9483 28.9744 27.9483C29.0147 28.192 28.9463 28.4397 28.7865 28.6282Z" fill="white"/>
<path d="M15.3515 29.0558L15.3455 29.0505C15.1448 28.8687 14.8365 28.8768 14.6455 29.0689L14.6402 29.0742C14.4958 29.2195 14.4529 29.4375 14.5316 29.6266C14.6102 29.8158 14.795 29.9391 14.9999 29.9391H15.011C15.2207 29.9391 15.4089 29.8099 15.4842 29.6143C15.5597 29.4185 15.507 29.1966 15.3515 29.0558Z" fill="white"/>
<path d="M15.3357 29.0412C15.2205 28.9376 15.0644 28.8922 14.9114 28.9182C14.7587 28.9441 14.6262 29.0385 14.5516 29.1743L14.5481 29.1807C14.4412 29.3756 14.4737 29.6175 14.6283 29.7773L14.6301 29.7792C14.7295 29.8819 14.8619 29.9337 14.9947 29.9337C15.1169 29.9337 15.2394 29.8898 15.3364 29.8011L15.3418 29.7963C15.3878 29.7544 15.4258 29.7041 15.4537 29.6483C15.5558 29.4442 15.5053 29.1938 15.3357 29.0412Z" fill="white"/>
<path d="M15.3576 29.0722L15.3555 29.07C15.3541 29.0687 15.3527 29.0673 15.3514 29.066L15.2389 28.9536C15.2337 28.9483 15.2282 28.9431 15.2227 28.9381L9.77915 23.9584L10.3111 22.9427C10.3929 22.7868 10.3878 22.5996 10.2978 22.4482C10.2078 22.2968 10.0458 22.203 9.86968 22.2002L8.5727 22.1803L9.89435 19.5298C9.98693 19.3442 9.95704 19.1209 9.81917 18.966C9.6813 18.8112 9.46286 18.7558 9.26792 18.8265L2.93785 21.1167C1.75097 21.5459 0.885541 22.5862 0.679349 23.8314L0.0250313 27.7826C-0.0640899 28.321 0.0871994 28.8682 0.440052 29.2843C0.792962 29.7004 1.3083 29.939 1.8538 29.939H15C15.2055 29.939 15.3906 29.8151 15.4689 29.6253C15.5472 29.4354 15.5032 29.217 15.3576 29.0722ZM1.85386 28.9247C1.60683 28.9247 1.37351 28.8166 1.21378 28.6282C1.05406 28.4398 0.985619 28.192 1.02593 27.9482L1.68025 23.9971C1.82656 23.1133 2.44068 22.3751 3.28297 22.0705L8.42077 20.2117L7.30538 22.4484C7.22756 22.6045 7.2353 22.7894 7.32594 22.9384C7.41647 23.0874 7.57719 23.1793 7.75151 23.182L9.03038 23.2017L8.69944 23.8335C8.59263 24.0375 8.63657 24.2878 8.80638 24.4431L13.7055 28.9247H1.85386Z" fill="white"/>
<path d="M16.7266 22.8257C16.7632 22.6792 16.7327 22.5241 16.6433 22.4024L15.409 20.7214C15.2793 20.5447 15.0505 20.4744 14.8423 20.5427C14.7298 20.5796 14.6372 20.654 14.5755 20.7491L13.3638 22.3933C13.3464 22.4167 13.331 22.4419 13.3179 22.4681C13.2349 22.6342 13.2493 22.8323 13.3553 22.9847L13.8714 23.7258L13.3216 27.1909C13.304 27.3021 13.3239 27.416 13.3782 27.5148L14.5558 29.6558C14.6449 29.818 14.8153 29.9186 15.0002 29.9186C15.1852 29.9186 15.3555 29.818 15.4447 29.6558L16.6311 27.4989C16.6722 27.424 16.6938 27.3399 16.6938 27.2545V27.2542C16.6938 27.2276 16.6917 27.201 16.6876 27.1747L16.1404 23.7258L16.6508 22.993C16.6859 22.9422 16.7117 22.8854 16.7266 22.8257ZM15.0002 28.359L14.3507 27.1781L14.9053 23.6831C14.9258 23.5536 14.8954 23.4213 14.8205 23.3138L14.3955 22.7033L15.0017 21.8808L15.6111 22.7107L15.1911 23.3138C15.1162 23.4212 15.0859 23.5536 15.1064 23.6831L15.6584 27.1622L15.0002 28.359Z" fill="white"/>
</svg>
